<svg width="19" height="19" viewBox="0 0 19 19" fill="none" xmlns="http://www.w3.org/2000/svg">
    <path d="M17.9819 16.9749L13.0189 12.0119C14.1105 10.6625 14.6427 8.94567 14.5058 7.21543C14.3689 5.48518 13.5734 3.8734 12.2832 2.71238C10.9931 1.55135 9.30663 0.929579 7.57158 0.975249C5.83653 1.02092 4.18513 1.73055 2.95784 2.95784C1.73055 4.18513 1.02092 5.83653 0.975249 7.57158C0.929579 9.30663 1.55135 10.9931 2.71238 12.2832C3.8734 13.5734 5.48518 14.3689 7.21543 14.5058C8.94567 14.6427 10.6625 14.1105 12.0119 13.0189L16.9749 17.9819C17.0416 18.0477 17.1314 18.0845 17.2249 18.0845C17.3185 18.0845 17.4083 18.0477 17.4749 17.9819L17.9749 17.4819C18.009 17.4493 18.0362 17.4102 18.055 17.3669C18.0738 17.3237 18.0839 17.2771 18.0845 17.2299C18.0852 17.1827 18.0764 17.1359 18.0588 17.0921C18.0412 17.0484 18.0151 17.0085 17.9819 16.9749ZM7.76294 13.0999C6.70682 13.1003 5.6743 12.7875 4.796 12.201C3.9177 11.6145 3.23308 10.7807 2.82873 9.80501C2.42439 8.82936 2.31849 7.7557 2.52443 6.71984C2.73037 5.68399 3.23891 4.73249 3.9857 3.9857C4.73249 3.23891 5.68399 2.73037 6.71984 2.52443C7.7557 2.31849 8.82936 2.42439 9.80501 2.82873C10.7807 3.23308 11.6145 3.9177 12.201 4.796C12.7875 5.6743 13.1003 6.70682 13.0999 7.76294C13.0978 9.17775 12.5349 10.534 11.5344 11.5344C10.534 12.5349 9.17775 13.0978 7.76294 13.0999Z" fill="#343352"/>
</svg>
